<svg width="548.38671875" height="65.44921875" viewBox="0 0 548.38671875 67.44921875" xmlns="http://www.w3.org/2000/svg"
     data-copyright="https://github.com/oubenruing/svg-text-animate" style="vertical-align: text-top; ">
  <g id="svgGroup" stroke-linecap="round" stroke="#000" fill="none" style="fill:none;
            stroke:#333333;
            stroke-width:2px;">
    <path
      d="M5.45 17.17L16.79 38.58L28.21 17.17L33.60 17.17L19.31 43.39L19.31 60L14.27 60L14.27 43.62L0 17.17L5.45 17.17Z"
      style="stroke-dasharray: 157, 159; stroke-dashoffset: 158; animation: 300ms linear 0ms 1 normal forwards running STAdraw;"></path>
    <path
      d="M59.12 60L55.52 60L54.55 55.43L54.32 55.43Q51.91 58.45 49.53 59.52Q47.14 60.59 43.56 60.59L43.56 60.59Q38.79 60.59 36.08 58.13Q33.37 55.66 33.37 51.12L33.37 51.12Q33.37 41.40 48.93 40.93L48.93 40.93L54.38 40.75L54.38 38.76Q54.38 34.98 52.75 33.18Q51.12 31.38 47.55 31.38L47.55 31.38Q43.54 31.38 38.47 33.84L38.47 33.84L36.97 30.12Q39.35 28.83 42.17 28.10Q45 27.36 47.84 27.36L47.84 27.36Q53.58 27.36 56.35 29.91Q59.12 32.46 59.12 38.09L59.12 38.09L59.12 60ZM44.53 56.57L44.53 56.57Q49.07 56.57 51.67 54.08Q54.26 51.59 54.26 47.11L54.26 47.11L54.26 44.21L49.39 44.41Q43.59 44.62 41.03 46.22Q38.47 47.81 38.47 51.18L38.47 51.18Q38.47 53.82 40.06 55.20Q41.66 56.57 44.53 56.57Z"
      style="stroke-dasharray: 188, 190; stroke-dashoffset: 189; animation: 300ms linear 150ms 1 normal forwards running STAdraw;"></path>
    <path
      d="M95.98 60L91.11 60L91.11 39.23Q91.11 35.30 89.33 33.37Q87.54 31.44 83.73 31.44L83.73 31.44Q78.69 31.44 76.35 34.16Q74.00 36.88 74.00 43.15L74.00 43.15L74.00 60L69.14 60L69.14 27.89L73.10 27.89L73.89 32.29L74.12 32.29Q75.62 29.91 78.31 28.61Q81.01 27.30 84.32 27.30L84.32 27.30Q90.12 27.30 93.05 30.10Q95.98 32.90 95.98 39.05L95.98 39.05L95.98 60Z"
      style="stroke-dasharray: 169, 171; stroke-dashoffset: 170; animation: 300ms linear 300ms 1 normal forwards running STAdraw;"></path>
    <path
      d="M105.26 56.89L105.26 56.89Q105.26 54.93 106.16 53.92Q107.05 52.91 108.72 52.91L108.72 52.91Q110.42 52.91 111.37 53.92Q112.32 54.93 112.32 56.89L112.32 56.89Q112.32 58.80 111.36 59.82Q110.39 60.85 108.72 60.85L108.72 60.85Q107.23 60.85 106.25 59.93Q105.26 59.00 105.26 56.89Z"
      style="stroke-dasharray: 24, 26; stroke-dashoffset: 25; animation: 300ms linear 450ms 1 normal forwards running STAdraw;"></path>
    <path
      d="M136.58 42.19L127.65 42.19L127.65 60L122.67 60L122.67 17.17L134.41 17.17Q142.29 17.17 146.06 20.19Q149.82 23.20 149.82 29.27L149.82 29.27Q149.82 37.76 141.21 40.75L141.21 40.75L152.84 60L146.95 60L136.58 42.19ZM127.65 21.53L127.65 37.91L134.47 37.91Q139.75 37.91 142.21 35.82Q144.67 33.72 144.67 29.53L144.67 29.53Q144.67 25.28 142.16 23.41Q139.66 21.53 134.12 21.53L134.12 21.53L127.65 21.53Z"
      style="stroke-dasharray: 233, 235; stroke-dashoffset: 234; animation: 300ms linear 600ms 1 normal forwards running STAdraw;"></path>
    <path
      d="M158.67 27.89L163.59 27.89L163.59 48.72Q163.59 52.65 165.38 54.58Q167.17 56.51 170.98 56.51L170.98 56.51Q176.02 56.51 178.34 53.76Q180.67 51.01 180.67 44.77L180.67 44.77L180.67 27.89L185.54 27.89L185.54 60L181.52 60L180.82 55.69L180.56 55.69Q179.06 58.07 176.41 59.33Q173.76 60.59 170.36 60.59L170.36 60.59Q164.50 60.59 161.59 57.80Q158.67 55.02 158.67 48.90L158.67 48.90L158.67 27.89Z"
      style="stroke-dasharray: 170, 172; stroke-dashoffset: 171; animation: 300ms linear 750ms 1 normal forwards running STAdraw;"></path>
    <path
      d="M195.15 56.89L195.15 56.89Q195.15 54.93 196.04 53.92Q196.93 52.91 198.60 52.91L198.60 52.91Q200.30 52.91 201.25 53.92Q202.21 54.93 202.21 56.89L202.21 56.89Q202.21 58.80 201.24 59.82Q200.27 60.85 198.60 60.85L198.60 60.85Q197.11 60.85 196.13 59.93Q195.15 59.00 195.15 56.89Z"
      style="stroke-dasharray: 24, 26; stroke-dashoffset: 25; animation: 300ms linear 900ms 1 normal forwards running STAdraw;"></path>
    <path d="M236.43 60L212.55 60L212.55 17.17L217.53 17.17L217.53 55.49L236.43 55.49L236.43 60Z"
          style="stroke-dasharray: 133, 135; stroke-dashoffset: 134; animation: 300ms linear 1050ms 1 normal forwards running STAdraw;"></path>
    <path
      d="M247.82 27.89L247.82 60L242.96 60L242.96 27.89L247.82 27.89ZM242.55 19.19L242.55 19.19Q242.55 17.52 243.37 16.74Q244.19 15.97 245.42 15.97L245.42 15.97Q246.59 15.97 247.44 16.76Q248.29 17.55 248.29 19.19L248.29 19.19Q248.29 20.83 247.44 21.64Q246.59 22.44 245.42 22.44L245.42 22.44Q244.19 22.44 243.37 21.64Q242.55 20.83 242.55 19.19Z"
      style="stroke-dasharray: 93, 95; stroke-dashoffset: 94; animation: 300ms linear 1200ms 1 normal forwards running STAdraw;"></path>
    <path
      d="M303.37 38.64L303.37 38.64Q303.37 42.80 302.08 46.26Q300.79 49.72 298.45 51.62Q296.10 53.53 293.06 53.53L293.06 53.53Q290.54 53.53 288.81 52.00Q287.08 50.48 286.76 48.11L286.76 48.11L286.52 48.11Q285.35 50.65 283.17 52.09Q280.99 53.53 278.00 53.53L278.00 53.53Q273.60 53.53 271.13 50.52Q268.65 47.52 268.65 42.36L268.65 42.36Q268.65 36.39 272.11 32.65Q275.57 28.92 281.19 28.92L281.19 28.92Q283.18 28.92 285.70 29.28Q288.22 29.65 290.24 30.29L290.24 30.29L289.51 44.06L289.51 44.71Q289.51 49.92 293.41 49.92L293.41 49.92Q296.07 49.92 297.74 46.77Q299.41 43.62 299.41 38.58L299.41 38.58Q299.41 33.28 297.25 29.30Q295.08 25.31 291.08 23.16Q287.08 21.01 281.89 21.01L281.89 21.01Q275.36 21.01 270.53 23.72Q265.69 26.43 263.14 31.45Q260.60 36.47 260.60 43.07L260.60 43.07Q260.60 52.00 265.31 56.81Q270.03 61.61 278.91 61.61L278.91 61.61Q285.06 61.61 291.68 59.09L291.68 59.09L291.68 62.99Q286.05 65.45 278.91 65.45L278.91 65.45Q268.27 65.45 262.40 59.60Q256.52 53.76 256.52 43.27L256.52 43.27Q256.52 35.65 259.66 29.71Q262.79 23.76 268.59 20.49Q274.39 17.23 281.89 17.23L281.89 17.23Q288.19 17.23 293.10 19.88Q298.01 22.53 300.69 27.41Q303.37 32.29 303.37 38.64ZM273.08 42.48L273.08 42.48Q273.08 49.92 278.79 49.92L278.79 49.92Q284.85 49.92 285.38 40.75L285.38 40.75L285.79 33.11Q283.68 32.52 281.19 32.52L281.19 32.52Q277.38 32.52 275.23 35.16Q273.08 37.79 273.08 42.48Z"
      style="stroke-dasharray: 406, 408; stroke-dashoffset: 407; animation: 300ms linear 1350ms 1 normal forwards running STAdraw;"></path>
    <path
      d="M316.93 27.89L316.93 60L312.07 60L312.07 27.89L316.93 27.89ZM311.66 19.19L311.66 19.19Q311.66 17.52 312.48 16.74Q313.30 15.97 314.53 15.97L314.53 15.97Q315.70 15.97 316.55 16.76Q317.40 17.55 317.40 19.19L317.40 19.19Q317.40 20.83 316.55 21.64Q315.70 22.44 314.53 22.44L314.53 22.44Q313.30 22.44 312.48 21.64Q311.66 20.83 311.66 19.19Z"
      style="stroke-dasharray: 93, 95; stroke-dashoffset: 94; animation: 300ms linear 1500ms 1 normal forwards running STAdraw;"></path>
    <path
      d="M342.19 27.36L342.19 27.36Q348.52 27.36 352.02 31.68Q355.52 36.01 355.52 43.92L355.52 43.92Q355.52 51.83 351.99 56.21Q348.46 60.59 342.19 60.59L342.19 60.59Q339.05 60.59 336.46 59.43Q333.87 58.27 332.11 55.87L332.11 55.87L331.76 55.87L330.73 60L327.25 60L327.25 14.41L332.11 14.41L332.11 25.49Q332.11 29.21 331.88 32.17L331.88 32.17L332.11 32.17Q335.51 27.36 342.19 27.36ZM341.48 31.44L341.48 31.44Q336.50 31.44 334.31 34.29Q332.11 37.15 332.11 43.92L332.11 43.92Q332.11 50.68 334.37 53.60Q336.62 56.51 341.60 56.51L341.60 56.51Q346.08 56.51 348.28 53.25Q350.48 49.98 350.48 43.86L350.48 43.86Q350.48 37.59 348.28 34.51Q346.08 31.44 341.48 31.44Z"
      style="stroke-dasharray: 219, 221; stroke-dashoffset: 220; animation: 300ms linear 1650ms 1 normal forwards running STAdraw;"></path>
    <path
      d="M409.80 60L404.94 60L404.94 39.11Q404.94 35.27 403.30 33.35Q401.66 31.44 398.20 31.44L398.20 31.44Q393.66 31.44 391.49 34.04Q389.33 36.65 389.33 42.07L389.33 42.07L389.33 60L384.46 60L384.46 39.11Q384.46 35.27 382.82 33.35Q381.18 31.44 377.70 31.44L377.70 31.44Q373.13 31.44 371.00 34.17Q368.88 36.91 368.88 43.15L368.88 43.15L368.88 60L364.01 60L364.01 27.89L367.97 27.89L368.76 32.29L368.99 32.29Q370.37 29.94 372.88 28.62Q375.38 27.30 378.49 27.30L378.49 27.30Q386.02 27.30 388.33 32.75L388.33 32.75L388.56 32.75Q390 30.23 392.72 28.77Q395.45 27.30 398.94 27.30L398.94 27.30Q404.38 27.30 407.09 30.10Q409.80 32.90 409.80 39.05L409.80 39.05L409.80 60Z"
      style="stroke-dasharray: 263, 265; stroke-dashoffset: 264; animation: 300ms linear 1800ms 1 normal forwards running STAdraw;"></path>
    <path
      d="M419.12 56.89L419.12 56.89Q419.12 54.93 420.01 53.92Q420.91 52.91 422.58 52.91L422.58 52.91Q424.28 52.91 425.23 53.92Q426.18 54.93 426.18 56.89L426.18 56.89Q426.18 58.80 425.21 59.82Q424.25 60.85 422.58 60.85L422.58 60.85Q421.08 60.85 420.10 59.93Q419.12 59.00 419.12 56.89Z"
      style="stroke-dasharray: 24, 26; stroke-dashoffset: 25; animation: 300ms linear 1950ms 1 normal forwards running STAdraw;"></path>
    <path
      d="M448.62 60.59L448.62 60.59Q441.65 60.59 437.83 56.29Q434.00 52.00 434.00 44.15L434.00 44.15Q434.00 36.09 437.89 31.70Q441.77 27.30 448.95 27.30L448.95 27.30Q451.26 27.30 453.57 27.80Q455.89 28.30 457.21 28.97L457.21 28.97L455.71 33.11Q454.10 32.46 452.20 32.04Q450.29 31.61 448.83 31.61L448.83 31.61Q439.04 31.61 439.04 44.09L439.04 44.09Q439.04 50.01 441.43 53.17Q443.82 56.34 448.51 56.34L448.51 56.34Q452.52 56.34 456.74 54.61L456.74 54.61L456.74 58.92Q453.52 60.59 448.62 60.59Z"
      style="stroke-dasharray: 127, 129; stroke-dashoffset: 128; animation: 300ms linear 2100ms 1 normal forwards running STAdraw;"></path>
    <path
      d="M492.07 43.92L492.07 43.92Q492.07 51.77 488.12 56.18Q484.16 60.59 477.19 60.59L477.19 60.59Q472.88 60.59 469.54 58.56Q466.20 56.54 464.38 52.76Q462.57 48.98 462.57 43.92L462.57 43.92Q462.57 36.06 466.49 31.68Q470.42 27.30 477.39 27.30L477.39 27.30Q484.13 27.30 488.10 31.79Q492.07 36.27 492.07 43.92ZM467.61 43.92L467.61 43.92Q467.61 50.07 470.07 53.29Q472.53 56.51 477.30 56.51L477.30 56.51Q482.08 56.51 484.56 53.31Q487.03 50.10 487.03 43.92L487.03 43.92Q487.03 37.79 484.56 34.61Q482.08 31.44 477.25 31.44L477.25 31.44Q472.47 31.44 470.04 34.57Q467.61 37.71 467.61 43.92Z"
      style="stroke-dasharray: 172, 174; stroke-dashoffset: 173; animation: 300ms linear 2250ms 1 normal forwards running STAdraw;"></path>
    <path
      d="M546.39 60L541.52 60L541.52 39.11Q541.52 35.27 539.88 33.35Q538.24 31.44 534.79 31.44L534.79 31.44Q530.24 31.44 528.08 34.04Q525.91 36.65 525.91 42.07L525.91 42.07L525.91 60L521.04 60L521.04 39.11Q521.04 35.27 519.40 33.35Q517.76 31.44 514.28 31.44L514.28 31.44Q509.71 31.44 507.58 34.17Q505.46 36.91 505.46 43.15L505.46 43.15L505.46 60L500.60 60L500.60 27.89L504.55 27.89L505.34 32.29L505.58 32.29Q506.95 29.94 509.46 28.62Q511.96 27.30 515.07 27.30L515.07 27.30Q522.60 27.30 524.91 32.75L524.91 32.75L525.15 32.75Q526.58 30.23 529.31 28.77Q532.03 27.30 535.52 27.30L535.52 27.30Q540.97 27.30 543.68 30.10Q546.39 32.90 546.39 39.05L546.39 39.05L546.39 60Z"
      style="stroke-dasharray: 263, 265; stroke-dashoffset: 264; animation: 300ms linear 2400ms 1 normal forwards running STAdraw;"></path>
  </g>
  <style>@keyframes STAdraw{to{stroke-dashoffset:0}}</style>
</svg>
