<svg width="512.9375" height="74.4140625" viewBox="0 0 512.9375 76.4140625" xmlns="http://www.w3.org/2000/svg"
     data-copyright="https://github.com/oubenruing/svg-text-animate" style="vertical-align: text-top; ">
  <g id="svgGroup" stroke-linecap="round" stroke="#000" fill="none" style="fill:none;
            stroke:#333333;
            stroke-width:2px;">
    <path
      d="M10.02 27.89L10.02 60L5.16 60L5.16 27.89L10.02 27.89ZM4.75 19.19L4.75 19.19Q4.75 17.52 5.57 16.74Q6.39 15.97 7.62 15.97L7.62 15.97Q8.79 15.97 9.64 16.76Q10.49 17.55 10.49 19.19L10.49 19.19Q10.49 20.83 9.64 21.64Q8.79 22.44 7.62 22.44L7.62 22.44Q6.39 22.44 5.57 21.64Q4.75 20.83 4.75 19.19Z"
      style="stroke-dasharray: 93, 95; stroke-dashoffset: 94; animation: 300ms linear 0ms 1 normal forwards running STAdraw;"></path>
    <path
      d="M47.17 60L42.30 60L42.30 39.23Q42.30 35.30 40.52 33.37Q38.73 31.44 34.92 31.44L34.92 31.44Q29.88 31.44 27.54 34.16Q25.20 36.88 25.20 43.15L25.20 43.15L25.20 60L20.33 60L20.33 27.89L24.29 27.89L25.08 32.29L25.31 32.29Q26.81 29.91 29.50 28.61Q32.20 27.30 35.51 27.30L35.51 27.30Q41.31 27.30 44.24 30.10Q47.17 32.90 47.17 39.05L47.17 39.05L47.17 60Z"
      style="stroke-dasharray: 169, 171; stroke-dashoffset: 170; animation: 300ms linear 150ms 1 normal forwards running STAdraw;"></path>
    <path
      d="M67.53 56.57L67.53 56.57Q68.82 56.57 70.02 56.38Q71.22 56.19 71.92 55.99L71.92 55.99L71.92 59.71Q71.13 60.09 69.59 60.34Q68.06 60.59 66.83 60.59L66.83 60.59Q57.51 60.59 57.51 50.77L57.51 50.77L57.51 31.67L52.91 31.67L52.91 29.33L57.51 27.30L59.56 20.45L62.37 20.45L62.37 27.89L71.69 27.89L71.69 31.67L62.37 31.67L62.37 50.57Q62.37 53.47 63.75 55.02Q65.13 56.57 67.53 56.57Z"
      style="stroke-dasharray: 127, 129; stroke-dashoffset: 128; animation: 300ms linear 300ms 1 normal forwards running STAdraw;"></path>
    <path
      d="M91.90 60.59L91.90 60.59Q84.79 60.59 80.67 56.25Q76.55 51.91 76.55 44.21L76.55 44.21Q76.55 36.45 80.38 31.88Q84.20 27.30 90.64 27.30L90.64 27.30Q96.68 27.30 100.20 31.27Q103.71 35.24 103.71 41.75L103.71 41.75L103.71 44.82L81.59 44.82Q81.74 50.48 84.45 53.41Q87.16 56.34 92.08 56.34L92.08 56.34Q97.27 56.34 102.33 54.17L102.33 54.17L102.33 58.51Q99.76 59.62 97.46 60.10Q95.16 60.59 91.90 60.59ZM90.59 31.38L90.59 31.38Q86.72 31.38 84.42 33.90Q82.12 36.42 81.71 40.87L81.71 40.87L98.50 40.87Q98.50 36.27 96.45 33.82Q94.39 31.38 90.59 31.38Z"
      style="stroke-dasharray: 186, 188; stroke-dashoffset: 187; animation: 300ms linear 450ms 1 normal forwards running STAdraw;"></path>
    <path
      d="M126.65 27.30L126.65 27.30Q128.79 27.30 130.49 27.66L130.49 27.66L129.81 32.17Q127.82 31.73 126.30 31.73L126.30 31.73Q122.40 31.73 119.63 34.89Q116.87 38.06 116.87 42.77L116.87 42.77L116.87 60L112.00 60L112.00 27.89L116.02 27.89L116.57 33.84L116.81 33.84Q118.59 30.70 121.11 29.00Q123.63 27.30 126.65 27.30Z"
      style="stroke-dasharray: 104, 106; stroke-dashoffset: 105; animation: 300ms linear 600ms 1 normal forwards running STAdraw;"></path>
    <path
      d="M163.33 60L158.47 60L158.47 39.23Q158.47 35.30 156.68 33.37Q154.89 31.44 151.08 31.44L151.08 31.44Q146.04 31.44 143.70 34.16Q141.36 36.88 141.36 43.15L141.36 43.15L141.36 60L136.49 60L136.49 27.89L140.45 27.89L141.24 32.29L141.47 32.29Q142.97 29.91 145.66 28.61Q148.36 27.30 151.67 27.30L151.67 27.30Q157.47 27.30 160.40 30.10Q163.33 32.90 163.33 39.05L163.33 39.05L163.33 60Z"
      style="stroke-dasharray: 169, 171; stroke-dashoffset: 170; animation: 300ms linear 750ms 1 normal forwards running STAdraw;"></path>
    <path
      d="M196.67 60L193.07 60L192.10 55.43L191.87 55.43Q189.46 58.45 187.08 59.52Q184.69 60.59 181.11 60.59L181.11 60.59Q176.34 60.59 173.63 58.13Q170.92 55.66 170.92 51.12L170.92 51.12Q170.92 41.40 186.47 40.93L186.47 40.93L191.92 40.75L191.92 38.76Q191.92 34.98 190.30 33.18Q188.67 31.38 185.10 31.38L185.10 31.38Q181.08 31.38 176.02 33.84L176.02 33.84L174.52 30.12Q176.89 28.83 179.72 28.10Q182.55 27.36 185.39 27.36L185.39 27.36Q191.13 27.36 193.90 29.91Q196.67 32.46 196.67 38.09L196.67 38.09L196.67 60ZM182.08 56.57L182.08 56.57Q186.62 56.57 189.21 54.08Q191.81 51.59 191.81 47.11L191.81 47.11L191.81 44.21L186.94 44.41Q181.14 44.62 178.58 46.22Q176.02 47.81 176.02 51.18L176.02 51.18Q176.02 53.82 177.61 55.20Q179.21 56.57 182.08 56.57Z"
      style="stroke-dasharray: 188, 190; stroke-dashoffset: 189; animation: 300ms linear 900ms 1 normal forwards running STAdraw;"></path>
    <path d="M211.55 14.41L211.55 60L206.69 60L206.69 14.41L211.55 14.41Z"
          style="stroke-dasharray: 100, 102; stroke-dashoffset: 101; animation: 300ms linear 1050ms 1 normal forwards running STAdraw;"></path>
    <path d="M233.55 46.14L219.17 46.14L219.17 41.69L233.55 41.69L233.55 46.14Z"
          style="stroke-dasharray: 37, 39; stroke-dashoffset: 38; animation: 300ms linear 1200ms 1 normal forwards running STAdraw;"></path>
    <path
      d="M254.74 60.59L254.74 60.59Q247.62 60.59 243.50 56.25Q239.38 51.91 239.38 44.21L239.38 44.21Q239.38 36.45 243.21 31.88Q247.03 27.30 253.48 27.30L253.48 27.30Q259.51 27.30 263.03 31.27Q266.54 35.24 266.54 41.75L266.54 41.75L266.54 44.82L244.42 44.82Q244.57 50.48 247.28 53.41Q249.99 56.34 254.91 56.34L254.91 56.34Q260.10 56.34 265.17 54.17L265.17 54.17L265.17 58.51Q262.59 59.62 260.29 60.10Q257.99 60.59 254.74 60.59ZM253.42 31.38L253.42 31.38Q249.55 31.38 247.25 33.90Q244.95 36.42 244.54 40.87L244.54 40.87L261.33 40.87Q261.33 36.27 259.28 33.82Q257.23 31.38 253.42 31.38Z"
      style="stroke-dasharray: 186, 188; stroke-dashoffset: 187; animation: 300ms linear 1350ms 1 normal forwards running STAdraw;"></path>
    <path
      d="M301.67 60L296.81 60L296.81 39.23Q296.81 35.30 295.02 33.37Q293.23 31.44 289.42 31.44L289.42 31.44Q284.38 31.44 282.04 34.16Q279.70 36.88 279.70 43.15L279.70 43.15L279.70 60L274.83 60L274.83 27.89L278.79 27.89L279.58 32.29L279.81 32.29Q281.31 29.91 284.00 28.61Q286.70 27.30 290.01 27.30L290.01 27.30Q295.81 27.30 298.74 30.10Q301.67 32.90 301.67 39.05L301.67 39.05L301.67 60Z"
      style="stroke-dasharray: 169, 171; stroke-dashoffset: 170; animation: 300ms linear 1500ms 1 normal forwards running STAdraw;"></path>
    <path
      d="M326.84 27.89L337.94 27.89L337.94 30.97L331.99 31.67Q332.81 32.70 333.46 34.35Q334.10 36.01 334.10 38.09L334.10 38.09Q334.10 42.80 330.88 45.62Q327.66 48.43 322.03 48.43L322.03 48.43Q320.60 48.43 319.34 48.19L319.34 48.19Q316.23 49.83 316.23 52.32L316.23 52.32Q316.23 53.64 317.31 54.27Q318.40 54.90 321.04 54.90L321.04 54.90L326.72 54.90Q331.93 54.90 334.73 57.10Q337.53 59.30 337.53 63.49L337.53 63.49Q337.53 68.82 333.25 71.62Q328.97 74.41 320.77 74.41L320.77 74.41Q314.47 74.41 311.06 72.07Q307.65 69.73 307.65 65.45L307.65 65.45Q307.65 62.52 309.52 60.38Q311.40 58.24 314.79 57.48L314.79 57.48Q313.56 56.92 312.73 55.75Q311.89 54.58 311.89 53.03L311.89 53.03Q311.89 51.27 312.83 49.95Q313.77 48.63 315.79 47.40L315.79 47.40Q313.30 46.38 311.73 43.92Q310.17 41.46 310.17 38.29L310.17 38.29Q310.17 33.02 313.33 30.16Q316.49 27.30 322.29 27.30L322.29 27.30Q324.81 27.30 326.84 27.89L326.84 27.89ZM312.33 65.39L312.33 65.39Q312.33 68.00 314.53 69.35Q316.73 70.69 320.83 70.69L320.83 70.69Q326.95 70.69 329.90 68.86Q332.84 67.03 332.84 63.90L332.84 63.90Q332.84 61.29 331.23 60.28Q329.62 59.27 325.17 59.27L325.17 59.27L319.34 59.27Q316.03 59.27 314.18 60.85Q312.33 62.43 312.33 65.39ZM314.97 38.17L314.97 38.17Q314.97 41.54 316.88 43.27Q318.78 45 322.18 45L322.18 45Q329.30 45 329.30 38.09L329.30 38.09Q329.30 30.85 322.09 30.85L322.09 30.85Q318.66 30.85 316.82 32.70Q314.97 34.54 314.97 38.17Z"
      style="stroke-dasharray: 279, 281; stroke-dashoffset: 280; animation: 300ms linear 1650ms 1 normal forwards running STAdraw;"></path>
    <path
      d="M349.39 27.89L349.39 60L344.53 60L344.53 27.89L349.39 27.89ZM344.12 19.19L344.12 19.19Q344.12 17.52 344.94 16.74Q345.76 15.97 346.99 15.97L346.99 15.97Q348.16 15.97 349.01 16.76Q349.86 17.55 349.86 19.19L349.86 19.19Q349.86 20.83 349.01 21.64Q348.16 22.44 346.99 22.44L346.99 22.44Q345.76 22.44 344.94 21.64Q344.12 20.83 344.12 19.19Z"
      style="stroke-dasharray: 93, 95; stroke-dashoffset: 94; animation: 300ms linear 1800ms 1 normal forwards running STAdraw;"></path>
    <path
      d="M386.54 60L381.68 60L381.68 39.23Q381.68 35.30 379.89 33.37Q378.11 31.44 374.30 31.44L374.30 31.44Q369.26 31.44 366.91 34.16Q364.57 36.88 364.57 43.15L364.57 43.15L364.57 60L359.71 60L359.71 27.89L363.66 27.89L364.45 32.29L364.69 32.29Q366.18 29.91 368.88 28.61Q371.57 27.30 374.88 27.30L374.88 27.30Q380.68 27.30 383.61 30.10Q386.54 32.90 386.54 39.05L386.54 39.05L386.54 60Z"
      style="stroke-dasharray: 169, 171; stroke-dashoffset: 170; animation: 300ms linear 1950ms 1 normal forwards running STAdraw;"></path>
    <path
      d="M410.10 60.59L410.10 60.59Q402.98 60.59 398.86 56.25Q394.75 51.91 394.75 44.21L394.75 44.21Q394.75 36.45 398.57 31.88Q402.39 27.30 408.84 27.30L408.84 27.30Q414.87 27.30 418.39 31.27Q421.90 35.24 421.90 41.75L421.90 41.75L421.90 44.82L399.79 44.82Q399.93 50.48 402.64 53.41Q405.35 56.34 410.27 56.34L410.27 56.34Q415.46 56.34 420.53 54.17L420.53 54.17L420.53 58.51Q417.95 59.62 415.65 60.10Q413.35 60.59 410.10 60.59ZM408.78 31.38L408.78 31.38Q404.91 31.38 402.61 33.90Q400.31 36.42 399.90 40.87L399.90 40.87L416.69 40.87Q416.69 36.27 414.64 33.82Q412.59 31.38 408.78 31.38Z"
      style="stroke-dasharray: 186, 188; stroke-dashoffset: 187; animation: 300ms linear 2100ms 1 normal forwards running STAdraw;"></path>
    <path d="M441.88 46.14L427.50 46.14L427.50 41.69L441.88 41.69L441.88 46.14Z"
          style="stroke-dasharray: 37, 39; stroke-dashoffset: 38; animation: 300ms linear 2250ms 1 normal forwards running STAdraw;"></path>
    <path
      d="M454.07 43.56L454.31 43.56Q455.57 41.78 458.14 38.88L458.14 38.88L468.52 27.89L474.29 27.89L461.28 41.57L475.20 60L469.31 60L457.97 44.82L454.31 47.99L454.31 60L449.50 60L449.50 14.41L454.31 14.41L454.31 38.58Q454.31 40.20 454.07 43.56L454.07 43.56Z"
      style="stroke-dasharray: 195, 197; stroke-dashoffset: 196; animation: 300ms linear 2400ms 1 normal forwards running STAdraw;"></path>
    <path
      d="M485.86 27.89L485.86 60L481.00 60L481.00 27.89L485.86 27.89ZM480.59 19.19L480.59 19.19Q480.59 17.52 481.41 16.74Q482.23 15.97 483.46 15.97L483.46 15.97Q484.63 15.97 485.48 16.76Q486.33 17.55 486.33 19.19L486.33 19.19Q486.33 20.83 485.48 21.64Q484.63 22.44 483.46 22.44L483.46 22.44Q482.23 22.44 481.41 21.64Q480.59 20.83 480.59 19.19Z"
      style="stroke-dasharray: 93, 95; stroke-dashoffset: 94; animation: 300ms linear 2550ms 1 normal forwards running STAdraw;"></path>
    <path
      d="M506.54 56.57L506.54 56.57Q507.83 56.57 509.03 56.38Q510.23 56.19 510.94 55.99L510.94 55.99L510.94 59.71Q510.15 60.09 508.61 60.34Q507.07 60.59 505.84 60.59L505.84 60.59Q496.52 60.59 496.52 50.77L496.52 50.77L496.52 31.67L491.92 31.67L491.92 29.33L496.52 27.30L498.57 20.45L501.39 20.45L501.39 27.89L510.70 27.89L510.70 31.67L501.39 31.67L501.39 50.57Q501.39 53.47 502.76 55.02Q504.14 56.57 506.54 56.57Z"
      style="stroke-dasharray: 127, 129; stroke-dashoffset: 128; animation: 300ms linear 2700ms 1 normal forwards running STAdraw;"></path>
  </g>
  <style>@keyframes STAdraw{to{stroke-dashoffset:0}}</style>
</svg>
